# Blender 5.0.1
# www.blender.org
mtllib virus_one.mtl
o Space_Invader
v -35.040100 80.000000 4.958194
v -35.040100 70.000000 4.958195
v -25.040100 70.000000 4.958195
v -25.040100 80.000000 4.958194
v -25.040100 70.000000 -5.041805
v -35.040100 70.000000 -5.041805
v -35.040100 80.000000 -5.041806
v -25.040100 80.000000 -5.041806
v -25.040100 70.000000 4.958195
v -25.040100 60.000000 4.958196
v -15.040100 60.000000 4.958196
v -15.040100 70.000000 4.958195
v -15.040100 60.000000 -5.041804
v -25.040100 60.000000 -5.041804
v -25.040100 70.000000 -5.041805
v -15.040100 70.000000 -5.041805
v 24.959900 80.000000 4.958194
v 24.959900 70.000000 4.958195
v 34.959900 70.000000 4.958195
v 34.959900 80.000000 4.958194
v 34.959900 70.000000 -5.041805
v 24.959900 70.000000 -5.041805
v 24.959900 80.000000 -5.041806
v 34.959900 80.000000 -5.041806
v 14.959900 70.000000 4.958195
v 14.959900 60.000000 4.958196
v 24.959900 60.000000 4.958196
v 24.959900 70.000000 4.958195
v 24.959900 60.000000 -5.041804
v 14.959900 60.000000 -5.041804
v 14.959900 70.000000 -5.041805
v 24.959900 70.000000 -5.041805
v -35.040100 60.000000 4.958196
v -35.040100 50.000000 4.958196
v -25.040100 50.000000 4.958196
v -25.040100 60.000000 4.958196
v -25.040100 50.000000 -5.041804
v -35.040100 50.000000 -5.041804
v -35.040100 60.000000 -5.041804
v -25.040100 60.000000 -5.041804
v -25.040100 60.000000 4.958196
v -25.040100 50.000000 4.958196
v -15.040100 50.000000 4.958196
v -15.040100 60.000000 4.958196
v -15.040100 50.000000 -5.041804
v -25.040100 50.000000 -5.041804
v -25.040100 60.000000 -5.041804
v -15.040100 60.000000 -5.041804
v -15.040100 60.000000 4.958196
v -15.040100 50.000000 4.958196
v -5.040100 50.000000 4.958196
v -5.040100 60.000000 4.958196
v -5.040100 50.000000 -5.041804
v -15.040100 50.000000 -5.041804
v -15.040100 60.000000 -5.041804
v -5.040100 60.000000 -5.041804
v -5.040100 60.000000 4.958196
v -5.040100 50.000000 4.958196
v 4.959900 50.000000 4.958196
v 4.959900 60.000000 4.958196
v 4.959900 50.000000 -5.041804
v -5.040100 50.000000 -5.041804
v -5.040100 60.000000 -5.041804
v 4.959900 60.000000 -5.041804
v 4.959900 60.000000 4.958196
v 4.959900 50.000000 4.958196
v 14.959900 50.000000 4.958196
v 14.959900 60.000000 4.958196
v 14.959900 50.000000 -5.041804
v 4.959900 50.000000 -5.041804
v 4.959900 60.000000 -5.041804
v 14.959900 60.000000 -5.041804
v 14.959900 60.000000 4.958196
v 14.959900 50.000000 4.958196
v 24.959900 50.000000 4.958196
v 24.959900 60.000000 4.958196
v 24.959900 50.000000 -5.041804
v 14.959900 50.000000 -5.041804
v 14.959900 60.000000 -5.041804
v 24.959900 60.000000 -5.041804
v 24.959900 60.000000 4.958196
v 24.959900 50.000000 4.958196
v 34.959900 50.000000 4.958196
v 34.959900 60.000000 4.958196
v 34.959900 50.000000 -5.041804
v 24.959900 50.000000 -5.041804
v 24.959900 60.000000 -5.041804
v 34.959900 60.000000 -5.041804
v -45.040100 50.000000 4.958196
v -45.040100 40.000000 4.958197
v -35.040100 40.000000 4.958197
v -35.040100 50.000000 4.958196
v -35.040100 40.000000 -5.041803
v -45.040100 40.000000 -5.041803
v -45.040100 50.000000 -5.041804
v -35.040100 50.000000 -5.041804
v -35.040100 50.000000 4.958196
v -35.040100 40.000000 4.958197
v -25.040100 40.000000 4.958197
v -25.040100 50.000000 4.958196
v -25.040100 40.000000 -5.041803
v -35.040100 40.000000 -5.041803
v -35.040100 50.000000 -5.041804
v -25.040100 50.000000 -5.041804
v -15.040100 50.000000 4.958196
v -15.040100 40.000000 4.958197
v -5.040100 40.000000 4.958197
v -5.040100 50.000000 4.958196
v -5.040100 40.000000 -5.041803
v -15.040100 40.000000 -5.041803
v -15.040100 50.000000 -5.041804
v -5.040100 50.000000 -5.041804
v -5.040100 50.000000 4.958196
v -5.040100 40.000000 4.958197
v 4.959900 40.000000 4.958197
v 4.959900 50.000000 4.958196
v 4.959900 40.000000 -5.041803
v -5.040100 40.000000 -5.041803
v -5.040100 50.000000 -5.041804
v 4.959900 50.000000 -5.041804
v 4.959900 50.000000 4.958196
v 4.959900 40.000000 4.958197
v 14.959900 40.000000 4.958197
v 14.959900 50.000000 4.958196
v 14.959900 40.000000 -5.041803
v 4.959900 40.000000 -5.041803
v 4.959900 50.000000 -5.041804
v 14.959900 50.000000 -5.041804
v 24.959900 50.000000 4.958196
v 24.959900 40.000000 4.958197
v 34.959900 40.000000 4.958197
v 34.959900 50.000000 4.958196
v 34.959900 40.000000 -5.041803
v 24.959900 40.000000 -5.041803
v 24.959900 50.000000 -5.041804
v 34.959900 50.000000 -5.041804
v 34.959900 50.000000 4.958196
v 34.959900 40.000000 4.958197
v 44.959900 40.000000 4.958197
v 44.959900 50.000000 4.958196
v 44.959900 40.000000 -5.041803
v 34.959900 40.000000 -5.041803
v 34.959900 50.000000 -5.041804
v 44.959900 50.000000 -5.041804
v -55.040100 40.000000 4.958197
v -55.040100 30.000000 4.958198
v -45.040100 30.000000 4.958198
v -45.040100 40.000000 4.958197
v -45.040100 30.000000 -5.041802
v -55.040100 30.000000 -5.041802
v -55.040100 40.000000 -5.041803
v -45.040100 40.000000 -5.041803
v -45.040100 40.000000 4.958197
v -45.040100 30.000000 4.958198
v -35.040100 30.000000 4.958198
v -35.040100 40.000000 4.958197
v -35.040100 30.000000 -5.041802
v -45.040100 30.000000 -5.041802
v -45.040100 40.000000 -5.041803
v -35.040100 40.000000 -5.041803
v -35.040100 40.000000 4.958197
v -35.040100 30.000000 4.958198
v -25.040100 30.000000 4.958198
v -25.040100 40.000000 4.958197
v -25.040100 30.000000 -5.041802
v -35.040100 30.000000 -5.041802
v -35.040100 40.000000 -5.041803
v -25.040100 40.000000 -5.041803
v -25.040100 40.000000 4.958197
v -25.040100 30.000000 4.958198
v -15.040100 30.000000 4.958198
v -15.040100 40.000000 4.958197
v -15.040100 30.000000 -5.041802
v -25.040100 30.000000 -5.041802
v -25.040100 40.000000 -5.041803
v -15.040100 40.000000 -5.041803
v -15.040100 40.000000 4.958197
v -15.040100 30.000000 4.958198
v -5.040100 30.000000 4.958198
v -5.040100 40.000000 4.958197
v -5.040100 30.000000 -5.041802
v -15.040100 30.000000 -5.041802
v -15.040100 40.000000 -5.041803
v -5.040100 40.000000 -5.041803
v -5.040100 40.000000 4.958197
v -5.040100 30.000000 4.958198
v 4.959900 30.000000 4.958198
v 4.959900 40.000000 4.958197
v 4.959900 30.000000 -5.041802
v -5.040100 30.000000 -5.041802
v -5.040100 40.000000 -5.041803
v 4.959900 40.000000 -5.041803
v 4.959900 40.000000 4.958197
v 4.959900 30.000000 4.958198
v 14.959900 30.000000 4.958198
v 14.959900 40.000000 4.958197
v 14.959900 30.000000 -5.041802
v 4.959900 30.000000 -5.041802
v 4.959900 40.000000 -5.041803
v 14.959900 40.000000 -5.041803
v 14.959900 40.000000 4.958197
v 14.959900 30.000000 4.958198
v 24.959900 30.000000 4.958198
v 24.959900 40.000000 4.958197
v 24.959900 30.000000 -5.041802
v 14.959900 30.000000 -5.041802
v 14.959900 40.000000 -5.041803
v 24.959900 40.000000 -5.041803
v 24.959900 40.000000 4.958197
v 24.959900 30.000000 4.958198
v 34.959900 30.000000 4.958198
v 34.959900 40.000000 4.958197
v 34.959900 30.000000 -5.041802
v 24.959900 30.000000 -5.041802
v 24.959900 40.000000 -5.041803
v 34.959900 40.000000 -5.041803
v 34.959900 40.000000 4.958197
v 34.959900 30.000000 4.958198
v 44.959900 30.000000 4.958198
v 44.959900 40.000000 4.958197
v 44.959900 30.000000 -5.041802
v 34.959900 30.000000 -5.041802
v 34.959900 40.000000 -5.041803
v 44.959900 40.000000 -5.041803
v 44.959900 40.000000 4.958197
v 44.959900 30.000000 4.958198
v 54.959900 30.000000 4.958198
v 54.959900 40.000000 4.958197
v 54.959900 30.000000 -5.041802
v 44.959900 30.000000 -5.041802
v 44.959900 40.000000 -5.041803
v 54.959900 40.000000 -5.041803
v -55.040100 30.000000 4.958198
v -55.040100 20.000000 4.958199
v -45.040100 20.000000 4.958199
v -45.040100 30.000000 4.958198
v -45.040100 20.000000 -5.041801
v -55.040100 20.000000 -5.041801
v -55.040100 30.000000 -5.041802
v -45.040100 30.000000 -5.041802
v -35.040100 30.000000 4.958198
v -35.040100 20.000000 4.958199
v -25.040100 20.000000 4.958199
v -25.040100 30.000000 4.958198
v -25.040100 20.000000 -5.041801
v -35.040100 20.000000 -5.041801
v -35.040100 30.000000 -5.041802
v -25.040100 30.000000 -5.041802
v -25.040100 30.000000 4.958198
v -25.040100 20.000000 4.958199
v -15.040100 20.000000 4.958199
v -15.040100 30.000000 4.958198
v -15.040100 20.000000 -5.041801
v -25.040100 20.000000 -5.041801
v -25.040100 30.000000 -5.041802
v -15.040100 30.000000 -5.041802
v -15.040100 30.000000 4.958198
v -15.040100 20.000000 4.958199
v -5.040100 20.000000 4.958199
v -5.040100 30.000000 4.958198
v -5.040100 20.000000 -5.041801
v -15.040100 20.000000 -5.041801
v -15.040100 30.000000 -5.041802
v -5.040100 30.000000 -5.041802
v -5.040100 30.000000 4.958198
v -5.040100 20.000000 4.958199
v 4.959900 20.000000 4.958199
v 4.959900 30.000000 4.958198
v 4.959900 20.000000 -5.041801
v -5.040100 20.000000 -5.041801
v -5.040100 30.000000 -5.041802
v 4.959900 30.000000 -5.041802
v 4.959900 30.000000 4.958198
v 4.959900 20.000000 4.958199
v 14.959900 20.000000 4.958199
v 14.959900 30.000000 4.958198
v 14.959900 20.000000 -5.041801
v 4.959900 20.000000 -5.041801
v 4.959900 30.000000 -5.041802
v 14.959900 30.000000 -5.041802
v 14.959900 30.000000 4.958198
v 14.959900 20.000000 4.958199
v 24.959900 20.000000 4.958199
v 24.959900 30.000000 4.958198
v 24.959900 20.000000 -5.041801
v 14.959900 20.000000 -5.041801
v 14.959900 30.000000 -5.041802
v 24.959900 30.000000 -5.041802
v 24.959900 30.000000 4.958198
v 24.959900 20.000000 4.958199
v 34.959900 20.000000 4.958199
v 34.959900 30.000000 4.958198
v 34.959900 20.000000 -5.041801
v 24.959900 20.000000 -5.041801
v 24.959900 30.000000 -5.041802
v 34.959900 30.000000 -5.041802
v 44.959900 30.000000 4.958198
v 44.959900 20.000000 4.958199
v 54.959900 20.000000 4.958199
v 54.959900 30.000000 4.958198
v 54.959900 20.000000 -5.041801
v 44.959900 20.000000 -5.041801
v 44.959900 30.000000 -5.041802
v 54.959900 30.000000 -5.041802
v -55.040100 20.000000 4.958199
v -55.040100 10.000000 4.958199
v -45.040100 10.000000 4.958199
v -45.040100 20.000000 4.958199
v -45.040100 10.000000 -5.041801
v -55.040100 10.000000 -5.041801
v -55.040100 20.000000 -5.041801
v -45.040100 20.000000 -5.041801
v -35.040100 20.000000 4.958199
v -35.040100 10.000000 4.958199
v -25.040100 10.000000 4.958199
v -25.040100 20.000000 4.958199
v -25.040100 10.000000 -5.041801
v -35.040100 10.000000 -5.041801
v -35.040100 20.000000 -5.041801
v -25.040100 20.000000 -5.041801
v 24.959900 20.000000 4.958199
v 24.959900 10.000000 4.958199
v 34.959900 10.000000 4.958199
v 34.959900 20.000000 4.958199
v 34.959900 10.000000 -5.041801
v 24.959900 10.000000 -5.041801
v 24.959900 20.000000 -5.041801
v 34.959900 20.000000 -5.041801
v 44.959900 20.000000 4.958199
v 44.959900 10.000000 4.958199
v 54.959900 10.000000 4.958199
v 54.959900 20.000000 4.958199
v 54.959900 10.000000 -5.041801
v 44.959900 10.000000 -5.041801
v 44.959900 20.000000 -5.041801
v 54.959900 20.000000 -5.041801
v -25.040100 10.000000 4.958199
v -25.040100 0.000000 4.958200
v -15.040100 0.000000 4.958200
v -15.040100 10.000000 4.958199
v -15.040100 -0.000000 -5.041800
v -25.040100 -0.000000 -5.041800
v -25.040100 10.000000 -5.041801
v -15.040100 10.000000 -5.041801
v -15.040100 10.000000 4.958199
v -15.040100 0.000000 4.958200
v -5.040100 0.000000 4.958200
v -5.040100 10.000000 4.958199
v -5.040100 -0.000000 -5.041800
v -15.040100 -0.000000 -5.041800
v -15.040100 10.000000 -5.041801
v -5.040100 10.000000 -5.041801
v 4.959900 10.000000 4.958199
v 4.959900 0.000000 4.958200
v 14.959900 0.000000 4.958200
v 14.959900 10.000000 4.958199
v 14.959900 -0.000000 -5.041800
v 4.959900 -0.000000 -5.041800
v 4.959900 10.000000 -5.041801
v 14.959900 10.000000 -5.041801
v 14.959900 10.000000 4.958199
v 14.959900 0.000000 4.958200
v 24.959900 0.000000 4.958200
v 24.959900 10.000000 4.958199
v 24.959900 -0.000000 -5.041800
v 14.959900 -0.000000 -5.041800
v 14.959900 10.000000 -5.041801
v 24.959900 10.000000 -5.041801
vn -0.0000 -0.0000 1.0000
vn -0.0000 -0.0000 -1.0000
vn -0.0000 -1.0000 -0.0000
vn 1.0000 -0.0000 -0.0000
vn -0.0000 1.0000 -0.0000
vn -1.0000 -0.0000 -0.0000
vt 0.000000 0.000000
vt 1.000000 1.000000
vt 0.000000 1.000000
vt 1.000000 0.000000
s 1
usemtl 02___Default
f 2/1/1 4/2/1 1/3/1
f 6/4/2 8/3/2 5/1/2
f 2/1/3 5/2/3 3/4/3
f 3/1/4 8/2/4 4/4/4
f 4/1/5 7/2/5 1/4/5
f 1/1/6 6/2/6 2/4/6
f 10/1/1 12/2/1 9/3/1
f 14/4/2 16/3/2 13/1/2
f 10/1/3 13/2/3 11/4/3
f 11/1/4 16/2/4 12/4/4
f 12/1/5 15/2/5 9/4/5
f 9/1/6 14/2/6 10/4/6
f 18/1/1 20/2/1 17/3/1
f 22/4/2 24/3/2 21/1/2
f 18/1/3 21/2/3 19/4/3
f 19/1/4 24/2/4 20/4/4
f 20/1/5 23/2/5 17/4/5
f 17/1/6 22/2/6 18/4/6
f 26/1/1 28/2/1 25/3/1
f 30/4/2 32/3/2 29/1/2
f 26/1/3 29/2/3 27/4/3
f 27/1/4 32/2/4 28/4/4
f 28/1/5 31/2/5 25/4/5
f 25/1/6 30/2/6 26/4/6
f 34/1/1 36/2/1 33/3/1
f 38/4/2 40/3/2 37/1/2
f 34/1/3 37/2/3 35/4/3
f 35/1/4 40/2/4 36/4/4
f 36/1/5 39/2/5 33/4/5
f 33/1/6 38/2/6 34/4/6
f 42/1/1 44/2/1 41/3/1
f 46/4/2 48/3/2 45/1/2
f 42/1/3 45/2/3 43/4/3
f 43/1/4 48/2/4 44/4/4
f 44/1/5 47/2/5 41/4/5
f 41/1/6 46/2/6 42/4/6
f 50/1/1 52/2/1 49/3/1
f 54/4/2 56/3/2 53/1/2
f 50/1/3 53/2/3 51/4/3
f 51/1/4 56/2/4 52/4/4
f 52/1/5 55/2/5 49/4/5
f 49/1/6 54/2/6 50/4/6
f 58/1/1 60/2/1 57/3/1
f 62/4/2 64/3/2 61/1/2
f 58/1/3 61/2/3 59/4/3
f 59/1/4 64/2/4 60/4/4
f 60/1/5 63/2/5 57/4/5
f 57/1/6 62/2/6 58/4/6
f 66/1/1 68/2/1 65/3/1
f 70/4/2 72/3/2 69/1/2
f 66/1/3 69/2/3 67/4/3
f 67/1/4 72/2/4 68/4/4
f 68/1/5 71/2/5 65/4/5
f 65/1/6 70/2/6 66/4/6
f 74/1/1 76/2/1 73/3/1
f 78/4/2 80/3/2 77/1/2
f 74/1/3 77/2/3 75/4/3
f 75/1/4 80/2/4 76/4/4
f 76/1/5 79/2/5 73/4/5
f 73/1/6 78/2/6 74/4/6
f 82/1/1 84/2/1 81/3/1
f 86/4/2 88/3/2 85/1/2
f 82/1/3 85/2/3 83/4/3
f 83/1/4 88/2/4 84/4/4
f 84/1/5 87/2/5 81/4/5
f 81/1/6 86/2/6 82/4/6
f 90/1/1 92/2/1 89/3/1
f 94/4/2 96/3/2 93/1/2
f 90/1/3 93/2/3 91/4/3
f 91/1/4 96/2/4 92/4/4
f 92/1/5 95/2/5 89/4/5
f 89/1/6 94/2/6 90/4/6
f 98/1/1 100/2/1 97/3/1
f 102/4/2 104/3/2 101/1/2
f 98/1/3 101/2/3 99/4/3
f 99/1/4 104/2/4 100/4/4
f 100/1/5 103/2/5 97/4/5
f 97/1/6 102/2/6 98/4/6
f 106/1/1 108/2/1 105/3/1
f 110/4/2 112/3/2 109/1/2
f 106/1/3 109/2/3 107/4/3
f 107/1/4 112/2/4 108/4/4
f 108/1/5 111/2/5 105/4/5
f 105/1/6 110/2/6 106/4/6
f 114/1/1 116/2/1 113/3/1
f 118/4/2 120/3/2 117/1/2
f 114/1/3 117/2/3 115/4/3
f 115/1/4 120/2/4 116/4/4
f 116/1/5 119/2/5 113/4/5
f 113/1/6 118/2/6 114/4/6
f 122/1/1 124/2/1 121/3/1
f 126/4/2 128/3/2 125/1/2
f 122/1/3 125/2/3 123/4/3
f 123/1/4 128/2/4 124/4/4
f 124/1/5 127/2/5 121/4/5
f 121/1/6 126/2/6 122/4/6
f 130/1/1 132/2/1 129/3/1
f 134/4/2 136/3/2 133/1/2
f 130/1/3 133/2/3 131/4/3
f 131/1/4 136/2/4 132/4/4
f 132/1/5 135/2/5 129/4/5
f 129/1/6 134/2/6 130/4/6
f 138/1/1 140/2/1 137/3/1
f 142/4/2 144/3/2 141/1/2
f 138/1/3 141/2/3 139/4/3
f 139/1/4 144/2/4 140/4/4
f 140/1/5 143/2/5 137/4/5
f 137/1/6 142/2/6 138/4/6
f 146/1/1 148/2/1 145/3/1
f 150/4/2 152/3/2 149/1/2
f 146/1/3 149/2/3 147/4/3
f 147/1/4 152/2/4 148/4/4
f 148/1/5 151/2/5 145/4/5
f 145/1/6 150/2/6 146/4/6
f 154/1/1 156/2/1 153/3/1
f 158/4/2 160/3/2 157/1/2
f 154/1/3 157/2/3 155/4/3
f 155/1/4 160/2/4 156/4/4
f 156/1/5 159/2/5 153/4/5
f 153/1/6 158/2/6 154/4/6
f 162/1/1 164/2/1 161/3/1
f 166/4/2 168/3/2 165/1/2
f 162/1/3 165/2/3 163/4/3
f 163/1/4 168/2/4 164/4/4
f 164/1/5 167/2/5 161/4/5
f 161/1/6 166/2/6 162/4/6
f 170/1/1 172/2/1 169/3/1
f 174/4/2 176/3/2 173/1/2
f 170/1/3 173/2/3 171/4/3
f 171/1/4 176/2/4 172/4/4
f 172/1/5 175/2/5 169/4/5
f 169/1/6 174/2/6 170/4/6
f 178/1/1 180/2/1 177/3/1
f 182/4/2 184/3/2 181/1/2
f 178/1/3 181/2/3 179/4/3
f 179/1/4 184/2/4 180/4/4
f 180/1/5 183/2/5 177/4/5
f 177/1/6 182/2/6 178/4/6
f 186/1/1 188/2/1 185/3/1
f 190/4/2 192/3/2 189/1/2
f 186/1/3 189/2/3 187/4/3
f 187/1/4 192/2/4 188/4/4
f 188/1/5 191/2/5 185/4/5
f 185/1/6 190/2/6 186/4/6
f 194/1/1 196/2/1 193/3/1
f 198/4/2 200/3/2 197/1/2
f 194/1/3 197/2/3 195/4/3
f 195/1/4 200/2/4 196/4/4
f 196/1/5 199/2/5 193/4/5
f 193/1/6 198/2/6 194/4/6
f 202/1/1 204/2/1 201/3/1
f 206/4/2 208/3/2 205/1/2
f 202/1/3 205/2/3 203/4/3
f 203/1/4 208/2/4 204/4/4
f 204/1/5 207/2/5 201/4/5
f 201/1/6 206/2/6 202/4/6
f 210/1/1 212/2/1 209/3/1
f 214/4/2 216/3/2 213/1/2
f 210/1/3 213/2/3 211/4/3
f 211/1/4 216/2/4 212/4/4
f 212/1/5 215/2/5 209/4/5
f 209/1/6 214/2/6 210/4/6
f 218/1/1 220/2/1 217/3/1
f 222/4/2 224/3/2 221/1/2
f 218/1/3 221/2/3 219/4/3
f 219/1/4 224/2/4 220/4/4
f 220/1/5 223/2/5 217/4/5
f 217/1/6 222/2/6 218/4/6
f 226/1/1 228/2/1 225/3/1
f 230/4/2 232/3/2 229/1/2
f 226/1/3 229/2/3 227/4/3
f 227/1/4 232/2/4 228/4/4
f 228/1/5 231/2/5 225/4/5
f 225/1/6 230/2/6 226/4/6
f 234/1/1 236/2/1 233/3/1
f 238/4/2 240/3/2 237/1/2
f 234/1/3 237/2/3 235/4/3
f 235/1/4 240/2/4 236/4/4
f 236/1/5 239/2/5 233/4/5
f 233/1/6 238/2/6 234/4/6
f 242/1/1 244/2/1 241/3/1
f 246/4/2 248/3/2 245/1/2
f 242/1/3 245/2/3 243/4/3
f 243/1/4 248/2/4 244/4/4
f 244/1/5 247/2/5 241/4/5
f 241/1/6 246/2/6 242/4/6
f 250/1/1 252/2/1 249/3/1
f 254/4/2 256/3/2 253/1/2
f 250/1/3 253/2/3 251/4/3
f 251/1/4 256/2/4 252/4/4
f 252/1/5 255/2/5 249/4/5
f 249/1/6 254/2/6 250/4/6
f 258/1/1 260/2/1 257/3/1
f 262/4/2 264/3/2 261/1/2
f 258/1/3 261/2/3 259/4/3
f 259/1/4 264/2/4 260/4/4
f 260/1/5 263/2/5 257/4/5
f 257/1/6 262/2/6 258/4/6
f 266/1/1 268/2/1 265/3/1
f 270/4/2 272/3/2 269/1/2
f 266/1/3 269/2/3 267/4/3
f 267/1/4 272/2/4 268/4/4
f 268/1/5 271/2/5 265/4/5
f 265/1/6 270/2/6 266/4/6
f 274/1/1 276/2/1 273/3/1
f 278/4/2 280/3/2 277/1/2
f 274/1/3 277/2/3 275/4/3
f 275/1/4 280/2/4 276/4/4
f 276/1/5 279/2/5 273/4/5
f 273/1/6 278/2/6 274/4/6
f 282/1/1 284/2/1 281/3/1
f 286/4/2 288/3/2 285/1/2
f 282/1/3 285/2/3 283/4/3
f 283/1/4 288/2/4 284/4/4
f 284/1/5 287/2/5 281/4/5
f 281/1/6 286/2/6 282/4/6
f 290/1/1 292/2/1 289/3/1
f 294/4/2 296/3/2 293/1/2
f 290/1/3 293/2/3 291/4/3
f 291/1/4 296/2/4 292/4/4
f 292/1/5 295/2/5 289/4/5
f 289/1/6 294/2/6 290/4/6
f 298/1/1 300/2/1 297/3/1
f 302/4/2 304/3/2 301/1/2
f 298/1/3 301/2/3 299/4/3
f 299/1/4 304/2/4 300/4/4
f 300/1/5 303/2/5 297/4/5
f 297/1/6 302/2/6 298/4/6
f 306/1/1 308/2/1 305/3/1
f 310/4/2 312/3/2 309/1/2
f 306/1/3 309/2/3 307/4/3
f 307/1/4 312/2/4 308/4/4
f 308/1/5 311/2/5 305/4/5
f 305/1/6 310/2/6 306/4/6
f 314/1/1 316/2/1 313/3/1
f 318/4/2 320/3/2 317/1/2
f 314/1/3 317/2/3 315/4/3
f 315/1/4 320/2/4 316/4/4
f 316/1/5 319/2/5 313/4/5
f 313/1/6 318/2/6 314/4/6
f 322/1/1 324/2/1 321/3/1
f 326/4/2 328/3/2 325/1/2
f 322/1/3 325/2/3 323/4/3
f 323/1/4 328/2/4 324/4/4
f 324/1/5 327/2/5 321/4/5
f 321/1/6 326/2/6 322/4/6
f 330/1/1 332/2/1 329/3/1
f 334/4/2 336/3/2 333/1/2
f 330/1/3 333/2/3 331/4/3
f 331/1/4 336/2/4 332/4/4
f 332/1/5 335/2/5 329/4/5
f 329/1/6 334/2/6 330/4/6
f 338/1/1 340/2/1 337/3/1
f 342/4/2 344/3/2 341/1/2
f 338/1/3 341/2/3 339/4/3
f 339/1/4 344/2/4 340/4/4
f 340/1/5 343/2/5 337/4/5
f 337/1/6 342/2/6 338/4/6
f 346/1/1 348/2/1 345/3/1
f 350/4/2 352/3/2 349/1/2
f 346/1/3 349/2/3 347/4/3
f 347/1/4 352/2/4 348/4/4
f 348/1/5 351/2/5 345/4/5
f 345/1/6 350/2/6 346/4/6
f 354/1/1 356/2/1 353/3/1
f 358/4/2 360/3/2 357/1/2
f 354/1/3 357/2/3 355/4/3
f 355/1/4 360/2/4 356/4/4
f 356/1/5 359/2/5 353/4/5
f 353/1/6 358/2/6 354/4/6
f 362/1/1 364/2/1 361/3/1
f 366/4/2 368/3/2 365/1/2
f 362/1/3 365/2/3 363/4/3
f 363/1/4 368/2/4 364/4/4
f 364/1/5 367/2/5 361/4/5
f 361/1/6 366/2/6 362/4/6
f 2/1/1 3/4/1 4/2/1
f 6/4/2 7/2/2 8/3/2
f 2/1/3 6/3/3 5/2/3
f 3/1/4 5/3/4 8/2/4
f 4/1/5 8/3/5 7/2/5
f 1/1/6 7/3/6 6/2/6
f 10/1/1 11/4/1 12/2/1
f 14/4/2 15/2/2 16/3/2
f 10/1/3 14/3/3 13/2/3
f 11/1/4 13/3/4 16/2/4
f 12/1/5 16/3/5 15/2/5
f 9/1/6 15/3/6 14/2/6
f 18/1/1 19/4/1 20/2/1
f 22/4/2 23/2/2 24/3/2
f 18/1/3 22/3/3 21/2/3
f 19/1/4 21/3/4 24/2/4
f 20/1/5 24/3/5 23/2/5
f 17/1/6 23/3/6 22/2/6
f 26/1/1 27/4/1 28/2/1
f 30/4/2 31/2/2 32/3/2
f 26/1/3 30/3/3 29/2/3
f 27/1/4 29/3/4 32/2/4
f 28/1/5 32/3/5 31/2/5
f 25/1/6 31/3/6 30/2/6
f 34/1/1 35/4/1 36/2/1
f 38/4/2 39/2/2 40/3/2
f 34/1/3 38/3/3 37/2/3
f 35/1/4 37/3/4 40/2/4
f 36/1/5 40/3/5 39/2/5
f 33/1/6 39/3/6 38/2/6
f 42/1/1 43/4/1 44/2/1
f 46/4/2 47/2/2 48/3/2
f 42/1/3 46/3/3 45/2/3
f 43/1/4 45/3/4 48/2/4
f 44/1/5 48/3/5 47/2/5
f 41/1/6 47/3/6 46/2/6
f 50/1/1 51/4/1 52/2/1
f 54/4/2 55/2/2 56/3/2
f 50/1/3 54/3/3 53/2/3
f 51/1/4 53/3/4 56/2/4
f 52/1/5 56/3/5 55/2/5
f 49/1/6 55/3/6 54/2/6
f 58/1/1 59/4/1 60/2/1
f 62/4/2 63/2/2 64/3/2
f 58/1/3 62/3/3 61/2/3
f 59/1/4 61/3/4 64/2/4
f 60/1/5 64/3/5 63/2/5
f 57/1/6 63/3/6 62/2/6
f 66/1/1 67/4/1 68/2/1
f 70/4/2 71/2/2 72/3/2
f 66/1/3 70/3/3 69/2/3
f 67/1/4 69/3/4 72/2/4
f 68/1/5 72/3/5 71/2/5
f 65/1/6 71/3/6 70/2/6
f 74/1/1 75/4/1 76/2/1
f 78/4/2 79/2/2 80/3/2
f 74/1/3 78/3/3 77/2/3
f 75/1/4 77/3/4 80/2/4
f 76/1/5 80/3/5 79/2/5
f 73/1/6 79/3/6 78/2/6
f 82/1/1 83/4/1 84/2/1
f 86/4/2 87/2/2 88/3/2
f 82/1/3 86/3/3 85/2/3
f 83/1/4 85/3/4 88/2/4
f 84/1/5 88/3/5 87/2/5
f 81/1/6 87/3/6 86/2/6
f 90/1/1 91/4/1 92/2/1
f 94/4/2 95/2/2 96/3/2
f 90/1/3 94/3/3 93/2/3
f 91/1/4 93/3/4 96/2/4
f 92/1/5 96/3/5 95/2/5
f 89/1/6 95/3/6 94/2/6
f 98/1/1 99/4/1 100/2/1
f 102/4/2 103/2/2 104/3/2
f 98/1/3 102/3/3 101/2/3
f 99/1/4 101/3/4 104/2/4
f 100/1/5 104/3/5 103/2/5
f 97/1/6 103/3/6 102/2/6
f 106/1/1 107/4/1 108/2/1
f 110/4/2 111/2/2 112/3/2
f 106/1/3 110/3/3 109/2/3
f 107/1/4 109/3/4 112/2/4
f 108/1/5 112/3/5 111/2/5
f 105/1/6 111/3/6 110/2/6
f 114/1/1 115/4/1 116/2/1
f 118/4/2 119/2/2 120/3/2
f 114/1/3 118/3/3 117/2/3
f 115/1/4 117/3/4 120/2/4
f 116/1/5 120/3/5 119/2/5
f 113/1/6 119/3/6 118/2/6
f 122/1/1 123/4/1 124/2/1
f 126/4/2 127/2/2 128/3/2
f 122/1/3 126/3/3 125/2/3
f 123/1/4 125/3/4 128/2/4
f 124/1/5 128/3/5 127/2/5
f 121/1/6 127/3/6 126/2/6
f 130/1/1 131/4/1 132/2/1
f 134/4/2 135/2/2 136/3/2
f 130/1/3 134/3/3 133/2/3
f 131/1/4 133/3/4 136/2/4
f 132/1/5 136/3/5 135/2/5
f 129/1/6 135/3/6 134/2/6
f 138/1/1 139/4/1 140/2/1
f 142/4/2 143/2/2 144/3/2
f 138/1/3 142/3/3 141/2/3
f 139/1/4 141/3/4 144/2/4
f 140/1/5 144/3/5 143/2/5
f 137/1/6 143/3/6 142/2/6
f 146/1/1 147/4/1 148/2/1
f 150/4/2 151/2/2 152/3/2
f 146/1/3 150/3/3 149/2/3
f 147/1/4 149/3/4 152/2/4
f 148/1/5 152/3/5 151/2/5
f 145/1/6 151/3/6 150/2/6
f 154/1/1 155/4/1 156/2/1
f 158/4/2 159/2/2 160/3/2
f 154/1/3 158/3/3 157/2/3
f 155/1/4 157/3/4 160/2/4
f 156/1/5 160/3/5 159/2/5
f 153/1/6 159/3/6 158/2/6
f 162/1/1 163/4/1 164/2/1
f 166/4/2 167/2/2 168/3/2
f 162/1/3 166/3/3 165/2/3
f 163/1/4 165/3/4 168/2/4
f 164/1/5 168/3/5 167/2/5
f 161/1/6 167/3/6 166/2/6
f 170/1/1 171/4/1 172/2/1
f 174/4/2 175/2/2 176/3/2
f 170/1/3 174/3/3 173/2/3
f 171/1/4 173/3/4 176/2/4
f 172/1/5 176/3/5 175/2/5
f 169/1/6 175/3/6 174/2/6
f 178/1/1 179/4/1 180/2/1
f 182/4/2 183/2/2 184/3/2
f 178/1/3 182/3/3 181/2/3
f 179/1/4 181/3/4 184/2/4
f 180/1/5 184/3/5 183/2/5
f 177/1/6 183/3/6 182/2/6
f 186/1/1 187/4/1 188/2/1
f 190/4/2 191/2/2 192/3/2
f 186/1/3 190/3/3 189/2/3
f 187/1/4 189/3/4 192/2/4
f 188/1/5 192/3/5 191/2/5
f 185/1/6 191/3/6 190/2/6
f 194/1/1 195/4/1 196/2/1
f 198/4/2 199/2/2 200/3/2
f 194/1/3 198/3/3 197/2/3
f 195/1/4 197/3/4 200/2/4
f 196/1/5 200/3/5 199/2/5
f 193/1/6 199/3/6 198/2/6
f 202/1/1 203/4/1 204/2/1
f 206/4/2 207/2/2 208/3/2
f 202/1/3 206/3/3 205/2/3
f 203/1/4 205/3/4 208/2/4
f 204/1/5 208/3/5 207/2/5
f 201/1/6 207/3/6 206/2/6
f 210/1/1 211/4/1 212/2/1
f 214/4/2 215/2/2 216/3/2
f 210/1/3 214/3/3 213/2/3
f 211/1/4 213/3/4 216/2/4
f 212/1/5 216/3/5 215/2/5
f 209/1/6 215/3/6 214/2/6
f 218/1/1 219/4/1 220/2/1
f 222/4/2 223/2/2 224/3/2
f 218/1/3 222/3/3 221/2/3
f 219/1/4 221/3/4 224/2/4
f 220/1/5 224/3/5 223/2/5
f 217/1/6 223/3/6 222/2/6
f 226/1/1 227/4/1 228/2/1
f 230/4/2 231/2/2 232/3/2
f 226/1/3 230/3/3 229/2/3
f 227/1/4 229/3/4 232/2/4
f 228/1/5 232/3/5 231/2/5
f 225/1/6 231/3/6 230/2/6
f 234/1/1 235/4/1 236/2/1
f 238/4/2 239/2/2 240/3/2
f 234/1/3 238/3/3 237/2/3
f 235/1/4 237/3/4 240/2/4
f 236/1/5 240/3/5 239/2/5
f 233/1/6 239/3/6 238/2/6
f 242/1/1 243/4/1 244/2/1
f 246/4/2 247/2/2 248/3/2
f 242/1/3 246/3/3 245/2/3
f 243/1/4 245/3/4 248/2/4
f 244/1/5 248/3/5 247/2/5
f 241/1/6 247/3/6 246/2/6
f 250/1/1 251/4/1 252/2/1
f 254/4/2 255/2/2 256/3/2
f 250/1/3 254/3/3 253/2/3
f 251/1/4 253/3/4 256/2/4
f 252/1/5 256/3/5 255/2/5
f 249/1/6 255/3/6 254/2/6
f 258/1/1 259/4/1 260/2/1
f 262/4/2 263/2/2 264/3/2
f 258/1/3 262/3/3 261/2/3
f 259/1/4 261/3/4 264/2/4
f 260/1/5 264/3/5 263/2/5
f 257/1/6 263/3/6 262/2/6
f 266/1/1 267/4/1 268/2/1
f 270/4/2 271/2/2 272/3/2
f 266/1/3 270/3/3 269/2/3
f 267/1/4 269/3/4 272/2/4
f 268/1/5 272/3/5 271/2/5
f 265/1/6 271/3/6 270/2/6
f 274/1/1 275/4/1 276/2/1
f 278/4/2 279/2/2 280/3/2
f 274/1/3 278/3/3 277/2/3
f 275/1/4 277/3/4 280/2/4
f 276/1/5 280/3/5 279/2/5
f 273/1/6 279/3/6 278/2/6
f 282/1/1 283/4/1 284/2/1
f 286/4/2 287/2/2 288/3/2
f 282/1/3 286/3/3 285/2/3
f 283/1/4 285/3/4 288/2/4
f 284/1/5 288/3/5 287/2/5
f 281/1/6 287/3/6 286/2/6
f 290/1/1 291/4/1 292/2/1
f 294/4/2 295/2/2 296/3/2
f 290/1/3 294/3/3 293/2/3
f 291/1/4 293/3/4 296/2/4
f 292/1/5 296/3/5 295/2/5
f 289/1/6 295/3/6 294/2/6
f 298/1/1 299/4/1 300/2/1
f 302/4/2 303/2/2 304/3/2
f 298/1/3 302/3/3 301/2/3
f 299/1/4 301/3/4 304/2/4
f 300/1/5 304/3/5 303/2/5
f 297/1/6 303/3/6 302/2/6
f 306/1/1 307/4/1 308/2/1
f 310/4/2 311/2/2 312/3/2
f 306/1/3 310/3/3 309/2/3
f 307/1/4 309/3/4 312/2/4
f 308/1/5 312/3/5 311/2/5
f 305/1/6 311/3/6 310/2/6
f 314/1/1 315/4/1 316/2/1
f 318/4/2 319/2/2 320/3/2
f 314/1/3 318/3/3 317/2/3
f 315/1/4 317/3/4 320/2/4
f 316/1/5 320/3/5 319/2/5
f 313/1/6 319/3/6 318/2/6
f 322/1/1 323/4/1 324/2/1
f 326/4/2 327/2/2 328/3/2
f 322/1/3 326/3/3 325/2/3
f 323/1/4 325/3/4 328/2/4
f 324/1/5 328/3/5 327/2/5
f 321/1/6 327/3/6 326/2/6
f 330/1/1 331/4/1 332/2/1
f 334/4/2 335/2/2 336/3/2
f 330/1/3 334/3/3 333/2/3
f 331/1/4 333/3/4 336/2/4
f 332/1/5 336/3/5 335/2/5
f 329/1/6 335/3/6 334/2/6
f 338/1/1 339/4/1 340/2/1
f 342/4/2 343/2/2 344/3/2
f 338/1/3 342/3/3 341/2/3
f 339/1/4 341/3/4 344/2/4
f 340/1/5 344/3/5 343/2/5
f 337/1/6 343/3/6 342/2/6
f 346/1/1 347/4/1 348/2/1
f 350/4/2 351/2/2 352/3/2
f 346/1/3 350/3/3 349/2/3
f 347/1/4 349/3/4 352/2/4
f 348/1/5 352/3/5 351/2/5
f 345/1/6 351/3/6 350/2/6
f 354/1/1 355/4/1 356/2/1
f 358/4/2 359/2/2 360/3/2
f 354/1/3 358/3/3 357/2/3
f 355/1/4 357/3/4 360/2/4
f 356/1/5 360/3/5 359/2/5
f 353/1/6 359/3/6 358/2/6
f 362/1/1 363/4/1 364/2/1
f 366/4/2 367/2/2 368/3/2
f 362/1/3 366/3/3 365/2/3
f 363/1/4 365/3/4 368/2/4
f 364/1/5 368/3/5 367/2/5
f 361/1/6 367/3/6 366/2/6
